# xmcd
#
# Track frame offsets:
# 150
# 32373
# 70524
# 102174
# 129463
# 161113
# 192833
# 225222
#
# Disc length: 3370 seconds
#
# Revision: 0
# Processed by: cddbd v1.5.2PL0 Copyright (c) Steve Scherf et al.
# Submitted via: Audion 3.0.2 (http://www.panic.com/audion/)
#
DISCID=560d2808
DTITLE=eee - ee
DYEAR=1900
DGENRE=
TTITLE0=1
TTITLE1=q
TTITLE2=a
TTITLE3=z
TTITLE4=d
TTITLE5=d
TTITLE6=f
TTITLE7=t
EXTD=
EXTT0=
EXTT1=
EXTT2=
EXTT3=
EXTT4=
EXTT5=
EXTT6=
EXTT7=
PLAYORDER=
